<svg width="636" height="500" viewBox="0 0 636 500" fill="none" xmlns="http://www.w3.org/2000/svg">
<path d="M282.655 309.62C272.704 309.902 262.603 310.127 252.425 310.298C242.272 310.507 232.022 310.65 221.738 310.726C211.464 310.827 201.135 310.849 190.806 310.703L159.923 310.126L159.303 310.115L159.31 309.514C159.366 304.92 159.442 300.326 159.446 295.732C159.482 291.138 159.455 286.544 159.423 281.95C159.384 277.356 159.396 272.762 159.315 268.169L159.095 254.387L159.083 253.574L159.923 253.559L175.251 253.278L190.579 253.085L221.236 252.848C231.454 252.762 241.673 252.743 251.892 252.792L267.22 252.883L282.548 253.073L283.88 253.089L283.862 254.387L283.671 268.383L283.354 282.284L282.655 309.62ZM282.442 309.407L281.743 281.616L281.426 267.954L281.235 254.387L282.548 255.701L267.22 255.891L251.892 255.982C241.673 256.022 231.454 256.003 221.236 255.926L190.579 255.689L175.251 255.496L159.923 255.215L160.75 254.387L160.531 268.168C160.45 272.762 160.462 277.356 160.423 281.95C160.391 286.544 160.363 291.138 160.4 295.732C160.404 300.326 160.479 304.92 160.535 309.513L159.923 308.901L190.353 308.324C200.461 308.178 210.57 308.2 220.734 308.301C230.887 308.377 241.074 308.52 251.359 308.729C261.619 308.9 271.955 309.125 282.442 309.407ZM441.962 415.216C442.298 416.628 442.554 418.058 442.726 419.499C442.92 420.926 443.051 422.354 443.145 423.782L443.218 424.884L441.962 424.965C438.701 425.175 435.432 425.2 432.169 425.04C430.537 424.956 428.905 424.834 427.273 424.627C425.625 424.446 423.99 424.164 422.377 423.782C423.99 423.4 425.625 423.117 427.273 422.936C428.905 422.729 430.537 422.608 432.169 422.523C435.432 422.363 438.701 422.388 441.962 422.598L440.779 423.782C440.873 422.354 441.003 420.926 441.197 419.499C441.37 418.058 441.625 416.628 441.962 415.216V415.216ZM385.035 254.536C379.56 254.8 374.085 254.926 368.61 255.117C363.135 255.262 357.66 255.38 352.185 255.47L335.76 255.674C330.285 255.692 324.81 255.765 319.335 255.737L320.687 254.385C320.701 261.443 320.563 268.502 320.401 275.56L319.931 296.734C319.708 310.851 319.756 324.967 320.075 339.083L320.492 360.258C320.582 367.316 320.71 374.374 320.747 381.433C320.859 395.549 321.008 409.665 320.933 423.782L319.335 422.184C325.613 422.235 331.891 422.237 338.169 422.349L357.002 422.615L375.835 423.03C382.113 423.192 388.391 423.392 394.669 423.631V423.933C388.391 424.181 382.113 424.381 375.835 424.534L357.002 424.948L338.169 425.215C331.891 425.327 325.613 425.329 319.335 425.38L317.747 425.393L317.738 423.782C317.663 409.665 317.812 395.549 317.924 381.433C317.961 374.374 318.089 367.316 318.179 360.258L318.596 339.083C318.903 324.967 318.951 310.851 318.74 296.734L318.269 275.56C318.108 268.502 317.969 261.443 317.984 254.385L317.987 253.04L319.335 253.033C324.81 253.005 330.285 253.079 335.76 253.096L352.185 253.301C357.66 253.39 363.135 253.507 368.61 253.653C374.085 253.844 379.56 253.971 385.035 254.234V254.536ZM282.655 423.89L267.568 424.201L259.989 424.357L252.359 424.471C242.177 424.618 231.978 424.821 221.7 424.906C211.442 425.033 201.133 425.071 190.834 425.117C180.527 425.128 170.208 425.08 159.923 424.897L158.793 424.877L158.81 423.783L159.203 398.283C159.345 389.783 159.427 381.283 159.45 372.783C159.506 364.283 159.398 355.783 159.379 347.283C159.347 338.783 159.186 330.283 159.096 321.783L159.087 320.967L159.923 320.955C170.142 320.813 180.361 320.633 190.579 320.558C200.798 320.445 211.017 320.37 221.236 320.332L251.892 320.175C262.111 320.166 272.33 320.149 282.548 320.216L284.122 320.227L284.114 321.783L284.047 334.671L283.905 347.542L283.592 373.216L282.655 423.89ZM282.442 423.677L281.505 372.351L281.193 347.024L281.05 334.395L280.983 321.783L282.548 323.349C272.33 323.416 262.111 323.4 251.892 323.391L221.236 323.233C211.017 323.188 200.798 323.112 190.579 323.007C180.361 322.932 170.142 322.752 159.923 322.611L160.75 321.783C160.66 330.283 160.498 338.783 160.466 347.283C160.448 355.783 160.34 364.283 160.396 372.783C160.41 381.283 160.492 389.783 160.643 398.283L161.036 423.783L159.923 422.67C170.076 422.487 180.195 422.439 190.325 422.45C200.463 422.496 210.592 422.534 220.771 422.661C230.931 422.746 241.17 422.949 251.425 423.096L259.124 423.21L266.873 423.366L282.442 423.677Z" fill="black"/>
<path d="M393.326 241.415L393.314 241.456C393.273 241.602 393.266 241.755 393.294 241.904C393.321 242.052 393.383 242.193 393.474 242.314C393.565 242.434 393.682 242.533 393.818 242.6C393.953 242.668 394.102 242.704 394.253 242.704H394.297C394.481 242.704 394.662 242.652 394.818 242.553C394.973 242.455 395.098 242.314 395.178 242.148C395.257 241.982 395.288 241.796 395.267 241.613C395.246 241.43 395.174 241.257 395.059 241.113L395.026 241.073C394.915 240.933 394.766 240.826 394.598 240.764C394.43 240.703 394.248 240.689 394.072 240.724C393.896 240.76 393.734 240.843 393.602 240.965C393.47 241.086 393.375 241.242 393.326 241.415V241.415ZM393.326 241.415L393.314 241.456C393.273 241.602 393.266 241.755 393.294 241.904C393.321 242.052 393.383 242.193 393.474 242.314C393.565 242.434 393.682 242.533 393.818 242.6C393.953 242.668 394.102 242.704 394.253 242.704H394.297C394.481 242.704 394.662 242.652 394.818 242.553C394.973 242.455 395.098 242.314 395.178 242.148C395.257 241.982 395.288 241.796 395.267 241.613C395.246 241.43 395.174 241.257 395.059 241.113L395.026 241.073C394.915 240.933 394.766 240.826 394.598 240.764C394.43 240.703 394.248 240.689 394.072 240.724C393.896 240.76 393.734 240.843 393.602 240.965C393.47 241.086 393.375 241.242 393.326 241.415V241.415ZM393.326 241.415L393.314 241.456C393.273 241.602 393.266 241.755 393.294 241.904C393.321 242.052 393.383 242.193 393.474 242.314C393.565 242.434 393.682 242.533 393.818 242.6C393.953 242.668 394.102 242.704 394.253 242.704H394.297C394.481 242.704 394.662 242.652 394.818 242.553C394.973 242.455 395.098 242.314 395.178 242.148C395.257 241.982 395.288 241.796 395.267 241.613C395.246 241.43 395.174 241.257 395.059 241.113L395.026 241.073C394.915 240.933 394.766 240.826 394.598 240.764C394.43 240.703 394.248 240.689 394.072 240.724C393.896 240.76 393.734 240.843 393.602 240.965C393.47 241.086 393.375 241.242 393.326 241.415V241.415ZM455.82 437.141V437.655H147.038C146.91 437.655 146.783 437.63 146.664 437.58C146.546 437.531 146.438 437.459 146.347 437.369C146.257 437.278 146.185 437.17 146.136 437.051C146.086 436.933 146.061 436.806 146.061 436.677V243.682C146.061 243.554 146.086 243.427 146.136 243.308C146.185 243.189 146.257 243.082 146.347 242.991C146.438 242.9 146.546 242.828 146.664 242.779C146.783 242.73 146.91 242.704 147.038 242.704H381.096C381.239 242.704 381.38 242.673 381.509 242.612C381.638 242.552 381.753 242.464 381.844 242.354C381.936 242.245 382.003 242.117 382.04 241.979C382.077 241.841 382.084 241.697 382.06 241.556C381.925 240.783 381.778 240.073 381.604 239.453C381.337 238.494 381.128 237.52 380.977 236.535C380.962 236.46 380.955 236.376 380.94 236.286C380.856 235.713 380.79 235.143 380.744 234.576C380.726 234.33 380.616 234.101 380.437 233.933C380.257 233.765 380.02 233.672 379.775 233.671L374.592 233.677H368.465L356.201 233.685H344.021L332.687 233.693L269.126 233.723L257.792 233.73H246.949L234.693 233.738H227.364L215.108 233.746L208.972 233.753H196.709L184.529 233.761L173.195 233.768L137.971 233.783C137.712 233.783 137.463 233.886 137.28 234.069C137.097 234.253 136.994 234.501 136.994 234.761V445.75C136.994 445.878 137.019 446.005 137.068 446.124C137.117 446.242 137.189 446.35 137.28 446.441C137.371 446.532 137.479 446.604 137.597 446.653C137.716 446.702 137.843 446.727 137.971 446.727L460.185 446.42C460.444 446.42 460.692 446.317 460.876 446.133C461.059 445.95 461.162 445.701 461.162 445.442L464.887 437.17C464.887 437.025 464.854 436.882 464.792 436.751C464.729 436.62 464.638 436.504 464.525 436.413C464.413 436.321 464.281 436.256 464.14 436.221C463.999 436.187 463.852 436.185 463.71 436.214C461.208 436.783 458.656 437.098 456.092 437.156C456.001 437.158 455.91 437.153 455.82 437.141V437.141ZM428.618 233.647L417.284 233.655L406.441 233.662H402.331C402.177 233.662 402.026 233.698 401.889 233.767C401.751 233.836 401.633 233.937 401.542 234.062C401.452 234.186 401.392 234.33 401.367 234.482C401.343 234.634 401.355 234.789 401.403 234.935C401.572 235.454 401.732 235.988 401.885 236.535C402.381 238.274 402.747 240.048 402.979 241.841C403.007 242.078 403.121 242.296 403.298 242.455C403.476 242.614 403.706 242.703 403.944 242.704M393.326 241.415L393.314 241.456C393.273 241.602 393.266 241.755 393.294 241.904C393.321 242.052 393.383 242.193 393.474 242.314C393.565 242.434 393.682 242.533 393.818 242.6C393.953 242.668 394.102 242.704 394.253 242.704H394.297C394.481 242.704 394.662 242.652 394.818 242.553C394.973 242.455 395.098 242.314 395.178 242.148C395.257 241.982 395.288 241.796 395.267 241.613C395.246 241.43 395.174 241.257 395.059 241.113L395.026 241.073C394.915 240.933 394.766 240.826 394.598 240.764C394.43 240.703 394.248 240.689 394.072 240.724C393.896 240.76 393.734 240.843 393.602 240.965C393.47 241.086 393.375 241.242 393.326 241.415V241.415ZM393.326 241.415L393.314 241.456C393.273 241.602 393.266 241.755 393.294 241.904C393.321 242.052 393.383 242.193 393.474 242.314C393.565 242.434 393.682 242.533 393.818 242.6C393.953 242.668 394.102 242.704 394.253 242.704H394.297C394.481 242.704 394.662 242.652 394.818 242.553C394.973 242.455 395.098 242.314 395.178 242.148C395.257 241.982 395.288 241.796 395.267 241.613C395.246 241.43 395.174 241.257 395.059 241.113L395.026 241.073C394.915 240.933 394.766 240.826 394.598 240.764C394.43 240.703 394.248 240.689 394.072 240.724C393.896 240.76 393.734 240.843 393.602 240.965C393.47 241.086 393.375 241.242 393.326 241.415V241.415Z" fill="#020202"/>
<path d="M305.476 242.031H296.409V442.188H305.476V242.031Z" fill="#020202"/>
<path d="M394.297 242.704H394.253C394.102 242.704 393.953 242.668 393.818 242.6C393.682 242.533 393.565 242.434 393.474 242.314C393.383 242.193 393.321 242.052 393.294 241.904C393.266 241.755 393.273 241.602 393.314 241.456L393.326 241.415C393.375 241.242 393.471 241.086 393.602 240.965C393.734 240.843 393.896 240.76 394.072 240.724C394.248 240.689 394.43 240.703 394.598 240.764C394.767 240.826 394.915 240.933 395.026 241.073L395.059 241.113C395.174 241.257 395.246 241.43 395.267 241.613C395.288 241.796 395.257 241.982 395.178 242.148C395.098 242.314 394.973 242.455 394.818 242.553C394.662 242.652 394.482 242.704 394.297 242.704V242.704ZM380.977 236.535C381.128 237.52 381.337 238.494 381.604 239.454C381.778 240.073 381.925 240.783 382.06 241.556C382.084 241.697 382.077 241.841 382.04 241.979C382.003 242.117 381.936 242.245 381.844 242.354C381.753 242.464 381.638 242.552 381.509 242.612C381.38 242.673 381.239 242.704 381.096 242.704H130.241C129.982 242.704 129.734 242.601 129.55 242.418C129.367 242.235 129.264 241.986 129.264 241.727V234.61C129.264 234.35 129.367 234.102 129.55 233.918C129.734 233.735 129.982 233.632 130.241 233.632H379.782C380.026 233.632 380.262 233.723 380.442 233.888C380.622 234.052 380.734 234.279 380.755 234.522C380.811 235.161 380.893 236 380.977 236.535ZM257.455 173.979C257.439 168.617 257.221 164.697 256.639 164.697H184.08C183.499 164.697 183.281 168.617 183.264 173.979C183.241 178.464 183.359 183.96 183.515 189.009C183.756 197.033 184.08 203.939 184.08 203.939C184.08 205.718 184.787 207.425 186.044 208.683C187.302 209.941 189.007 210.648 190.786 210.649H249.933C251.712 210.648 253.417 209.941 254.675 208.683C255.932 207.425 256.639 205.718 256.639 203.939C256.639 203.939 256.963 197.033 257.204 189.009C257.36 183.96 257.478 178.464 257.455 173.979Z" fill="#020202"/>
<path d="M190.674 242.202C189.93 242.202 189.193 242.056 188.505 241.771C187.818 241.486 187.193 241.068 186.667 240.542C186.14 240.015 185.723 239.39 185.438 238.702C185.154 238.014 185.007 237.277 185.007 236.532V220.129C185.007 219.384 185.154 218.647 185.438 217.959C185.723 217.271 186.14 216.646 186.667 216.119C187.193 215.593 187.818 215.175 188.505 214.89C189.193 214.605 189.93 214.459 190.674 214.459H202.391C203.893 214.461 205.332 215.059 206.393 216.122C207.455 217.185 208.051 218.626 208.051 220.129C208.051 221.632 207.455 223.073 206.393 224.136C205.332 225.199 203.893 225.797 202.391 225.799H196.341V236.532C196.341 237.277 196.195 238.014 195.91 238.702C195.625 239.39 195.208 240.015 194.681 240.542C194.155 241.068 193.53 241.486 192.843 241.771C192.155 242.056 191.418 242.202 190.674 242.202V242.202ZM251.648 242.202C250.904 242.202 250.167 242.056 249.479 241.771C248.792 241.486 248.167 241.068 247.641 240.542C247.115 240.015 246.697 239.39 246.412 238.702C246.128 238.014 245.981 237.277 245.981 236.532V225.799H240.081C238.578 225.799 237.137 225.202 236.074 224.138C235.011 223.075 234.414 221.633 234.414 220.129C234.414 218.625 235.011 217.183 236.074 216.12C237.137 215.056 238.578 214.459 240.081 214.459H251.648C252.392 214.459 253.129 214.605 253.817 214.89C254.504 215.175 255.129 215.593 255.655 216.119C256.182 216.646 256.599 217.271 256.884 217.959C257.169 218.647 257.315 219.384 257.315 220.129V236.532C257.315 237.277 257.169 238.014 256.884 238.702C256.599 239.39 256.182 240.015 255.655 240.542C255.129 241.068 254.504 241.486 253.817 241.771C253.129 242.056 252.392 242.202 251.648 242.202V242.202Z" fill="#020202"/>
<path d="M220.785 226.477H208.522V236.532H220.785V226.477Z" fill="#020202"/>
<path d="M235.141 226.477H222.878V236.532H235.141V226.477Z" fill="#020202"/>
<path d="M264.158 189.138C257.152 189.567 249.879 189.867 242.513 190.094C235.139 190.313 227.672 190.482 220.142 190.509C212.611 190.545 204.975 190.233 197.441 189.919C189.901 189.604 182.465 189.489 175.013 189.591C174.862 189.593 174.716 189.535 174.607 189.43C174.498 189.325 174.435 189.181 174.432 189.03L174.432 189.009C174.379 186.504 174.362 183.999 174.264 181.494L174.018 173.979C174.01 173.725 174.102 173.478 174.275 173.292C174.448 173.106 174.687 172.996 174.941 172.986L175.013 172.984C182.431 172.694 189.849 172.415 197.267 172.322C204.685 172.233 212.103 172.075 219.521 172.042C223.23 172.033 226.94 172.019 230.649 172.082C234.358 172.124 238.067 172.16 241.776 172.255C249.194 172.393 256.612 172.646 264.03 172.957L264.115 172.96C264.375 172.971 264.619 173.085 264.794 173.276C264.97 173.467 265.063 173.72 265.052 173.979V173.979C264.942 176.604 264.801 179.211 264.625 181.741L264.158 189.138ZM263.901 188.881L263.435 181.248C263.259 178.767 263.118 176.364 263.008 173.979L264.03 175.001C256.612 175.312 249.194 175.565 241.776 175.704C238.067 175.799 234.358 175.835 230.648 175.876C226.939 175.939 223.23 175.925 219.521 175.916C212.103 175.883 204.685 175.725 197.267 175.636C189.849 175.543 182.431 175.264 175.013 174.975L176.008 173.979L175.762 181.494C175.663 183.999 175.647 186.504 175.594 189.009L175.013 188.428C182.396 188.53 189.797 188.414 197.094 188.099C204.395 187.785 211.595 187.473 218.9 187.509C226.207 187.537 233.576 187.705 241.039 187.924C248.509 188.152 256.072 188.452 263.901 188.881V188.881Z" fill="black"/>
<path d="M339.477 233.632H296.882C296.196 233.632 295.532 233.387 295.01 232.941L289.212 227.987C288.78 227.618 288.249 227.385 287.686 227.317L280.158 226.406C279.458 226.321 278.814 225.983 278.347 225.455C277.879 224.928 277.621 224.247 277.621 223.542V218.048C277.621 217.283 277.925 216.55 278.466 216.009C279.006 215.468 279.74 215.164 280.504 215.164H355.855C356.62 215.164 357.353 215.468 357.894 216.009C358.435 216.55 358.738 217.283 358.738 218.048V223.542C358.738 224.247 358.48 224.928 358.013 225.455C357.545 225.983 356.901 226.321 356.201 226.406L348.674 227.317C348.11 227.385 347.579 227.618 347.148 227.987L341.35 232.941C340.828 233.387 340.164 233.632 339.477 233.632V233.632Z" fill="#020202"/>
<path d="M301.112 210.998C301.137 213.454 300.32 215.844 298.797 217.77C297.974 218.754 296.935 219.534 295.761 220.052C294.587 220.569 293.31 220.809 292.029 220.752C289.512 220.578 287.159 219.437 285.462 217.569C283.751 215.787 282.717 213.462 282.539 210.998C282.449 209.724 282.628 208.446 283.063 207.246C283.498 206.046 284.181 204.95 285.066 204.031C285.96 203.081 287.039 202.326 288.237 201.81C289.435 201.294 290.725 201.028 292.029 201.03C293.333 201.048 294.618 201.337 295.805 201.877C296.972 202.415 298.001 203.214 298.81 204.212C300.338 206.14 301.151 208.538 301.112 210.998V210.998ZM300.931 210.998C300.921 209.833 300.639 208.686 300.108 207.65C299.581 206.646 298.852 205.764 297.965 205.058C296.282 203.705 294.188 202.968 292.029 202.97C289.894 202.978 287.841 203.789 286.274 205.24C284.689 206.76 283.714 208.808 283.534 210.998C283.446 212.133 283.611 213.274 284.017 214.338C284.422 215.402 285.058 216.363 285.878 217.152C286.708 217.899 287.682 218.469 288.739 218.828C289.796 219.187 290.916 219.327 292.029 219.239C294.203 219.122 296.285 218.321 297.978 216.951C298.887 216.245 299.625 215.344 300.136 214.313C300.647 213.282 300.919 212.149 300.931 210.998H300.931Z" fill="#020202"/>
<path d="M319.098 210.998C319.123 213.454 318.305 215.844 316.782 217.77C315.959 218.754 314.92 219.534 313.746 220.052C312.573 220.569 311.296 220.809 310.014 220.752C307.497 220.578 305.144 219.437 303.447 217.569C301.737 215.787 300.702 213.462 300.524 210.998C300.434 209.724 300.613 208.446 301.048 207.246C301.484 206.046 302.166 204.95 303.051 204.031C303.946 203.081 305.025 202.326 306.222 201.81C307.42 201.294 308.71 201.028 310.014 201.03C311.318 201.048 312.604 201.337 313.791 201.877C314.958 202.415 315.986 203.214 316.796 204.212C318.323 206.14 319.136 208.538 319.098 210.998V210.998ZM318.916 210.998C318.906 209.833 318.624 208.686 318.093 207.65C317.567 206.646 316.837 205.764 315.95 205.058C314.268 203.705 312.173 202.968 310.014 202.97C307.88 202.978 305.826 203.789 304.26 205.24C302.674 206.76 301.699 208.808 301.519 210.998C301.432 212.133 301.597 213.274 302.002 214.338C302.407 215.402 303.043 216.363 303.864 217.152C304.694 217.899 305.667 218.469 306.725 218.828C307.782 219.187 308.901 219.327 310.014 219.239C312.189 219.122 314.271 218.321 315.964 216.951C316.873 216.245 317.61 215.344 318.122 214.313C318.633 213.282 318.904 212.149 318.916 210.998V210.998Z" fill="#020202"/>
<path d="M337.083 210.998C337.108 213.454 336.291 215.844 334.768 217.77C333.944 218.754 332.905 219.534 331.732 220.052C330.558 220.569 329.281 220.809 328 220.752C325.482 220.578 323.13 219.437 321.433 217.569C319.722 215.787 318.688 213.462 318.509 210.998C318.42 209.724 318.598 208.446 319.034 207.246C319.469 206.046 320.151 204.95 321.037 204.031C321.931 203.081 323.01 202.326 324.208 201.81C325.405 201.294 326.696 201.028 328 201.03C329.303 201.048 330.589 201.337 331.776 201.877C332.943 202.415 333.971 203.214 334.781 204.212C336.308 206.14 337.122 208.538 337.083 210.998ZM336.901 210.998C336.892 209.833 336.61 208.686 336.078 207.65C335.552 206.646 334.822 205.764 333.936 205.058C332.253 203.705 330.158 202.968 328 202.97C325.865 202.978 323.811 203.789 322.245 205.24C320.659 206.76 319.685 208.808 319.504 210.998C319.417 212.133 319.582 213.274 319.987 214.338C320.393 215.402 321.029 216.363 321.849 217.152C322.679 217.899 323.652 218.469 324.71 218.828C325.767 219.187 326.887 219.327 328 219.239C330.174 219.122 332.256 218.321 333.949 216.951C334.858 216.245 335.596 215.344 336.107 214.313C336.618 213.282 336.89 212.149 336.901 210.998H336.901Z" fill="#020202"/>
<path d="M355.069 210.998C355.093 213.454 354.276 215.844 352.753 217.77C351.93 218.754 350.891 219.534 349.717 220.052C348.543 220.569 347.266 220.809 345.985 220.752C343.468 220.578 341.115 219.437 339.418 217.569C337.707 215.787 336.673 213.462 336.495 210.998C336.405 209.724 336.584 208.446 337.019 207.246C337.454 206.046 338.137 204.95 339.022 204.031C339.916 203.081 340.996 202.326 342.193 201.81C343.391 201.294 344.681 201.028 345.985 201.03C347.289 201.048 348.575 201.337 349.761 201.877C350.929 202.415 351.957 203.214 352.767 204.212C354.294 206.14 355.107 208.538 355.069 210.998V210.998ZM354.887 210.998C354.877 209.833 354.595 208.686 354.064 207.65C353.537 206.646 352.808 205.764 351.921 205.058C350.238 203.705 348.144 202.968 345.985 202.97C343.85 202.978 341.797 203.789 340.231 205.24C338.645 206.76 337.67 208.808 337.49 210.998C337.402 212.133 337.567 213.274 337.973 214.338C338.378 215.402 339.014 216.363 339.835 217.152C340.665 217.899 341.638 218.469 342.695 218.828C343.753 219.187 344.872 219.327 345.985 219.239C348.159 219.122 350.241 218.321 351.935 216.951C352.843 216.245 353.581 215.344 354.092 214.313C354.604 213.282 354.875 212.149 354.887 210.998V210.998ZM310.434 195.229C310.458 197.685 309.641 200.075 308.118 202.001C307.295 202.985 306.256 203.765 305.082 204.283C303.908 204.8 302.631 205.04 301.35 204.983C298.833 204.809 296.48 203.668 294.783 201.8C293.072 200.018 292.038 197.693 291.86 195.229C291.77 193.955 291.949 192.677 292.384 191.477C292.819 190.277 293.502 189.181 294.387 188.262C295.281 187.313 296.361 186.557 297.558 186.041C298.756 185.525 300.046 185.259 301.35 185.261C302.654 185.28 303.939 185.568 305.126 186.108C306.294 186.646 307.322 187.445 308.132 188.443C309.659 190.371 310.472 192.769 310.434 195.229V195.229ZM310.252 195.229C310.242 194.064 309.96 192.917 309.429 191.881C308.902 190.877 308.173 189.995 307.286 189.29C305.603 187.936 303.509 187.199 301.35 187.201C299.215 187.209 297.162 188.02 295.596 189.471C294.01 190.991 293.035 193.039 292.855 195.229C292.767 196.364 292.932 197.505 293.338 198.569C293.743 199.633 294.379 200.594 295.2 201.383C296.03 202.13 297.003 202.7 298.06 203.059C299.118 203.418 300.237 203.558 301.35 203.47C303.524 203.353 305.606 202.552 307.3 201.182C308.208 200.477 308.946 199.575 309.457 198.544C309.969 197.513 310.24 196.38 310.252 195.229V195.229Z" fill="#020202"/>
<path d="M328.419 195.229C328.444 197.685 327.627 200.075 326.104 202.001C325.28 202.985 324.241 203.765 323.067 204.283C321.894 204.8 320.617 205.04 319.335 204.983C316.818 204.809 314.465 203.668 312.768 201.8C311.058 200.018 310.024 197.693 309.845 195.229C309.756 193.955 309.934 192.677 310.37 191.477C310.805 190.277 311.487 189.181 312.372 188.262C313.267 187.313 314.346 186.557 315.544 186.041C316.741 185.525 318.032 185.259 319.335 185.261C320.639 185.28 321.925 185.568 323.112 186.108C324.279 186.646 325.307 187.445 326.117 188.443C327.644 190.371 328.458 192.769 328.419 195.229ZM328.237 195.229C328.227 194.064 327.946 192.917 327.414 191.881C326.888 190.877 326.158 189.995 325.271 189.289C323.589 187.936 321.494 187.199 319.335 187.201C317.201 187.209 315.147 188.02 313.581 189.471C311.995 190.991 311.02 193.039 310.84 195.229C310.753 196.364 310.918 197.505 311.323 198.569C311.729 199.633 312.364 200.594 313.185 201.383C314.015 202.13 314.988 202.7 316.046 203.059C317.103 203.418 318.222 203.558 319.335 203.47C321.51 203.353 323.592 202.552 325.285 201.182C326.194 200.476 326.931 199.575 327.443 198.544C327.954 197.513 328.226 196.38 328.237 195.229H328.237Z" fill="#020202"/>
<path d="M319.426 179.051C319.451 181.507 318.634 183.897 317.111 185.823C316.287 186.807 315.248 187.588 314.075 188.105C312.901 188.622 311.624 188.862 310.343 188.806C307.825 188.631 305.473 187.491 303.776 185.622C302.065 183.84 301.031 181.516 300.853 179.051C300.763 177.778 300.941 176.5 301.377 175.299C301.812 174.099 302.494 173.004 303.38 172.084C304.274 171.135 305.353 170.379 306.551 169.863C307.748 169.347 309.039 169.082 310.343 169.084C311.646 169.102 312.932 169.39 314.119 169.93C315.286 170.468 316.314 171.267 317.124 172.266C318.652 174.194 319.465 176.591 319.426 179.051V179.051ZM319.245 179.051C319.235 177.886 318.953 176.74 318.421 175.703C317.895 174.7 317.165 173.817 316.279 173.112C314.596 171.759 312.502 171.022 310.343 171.023C308.208 171.032 306.154 171.842 304.588 173.294C303.003 174.814 302.028 176.862 301.847 179.051C301.76 180.187 301.925 181.327 302.33 182.391C302.736 183.455 303.372 184.416 304.192 185.205C305.022 185.953 305.996 186.523 307.053 186.882C308.11 187.241 309.23 187.38 310.343 187.293C312.517 187.175 314.599 186.374 316.292 185.004C317.201 184.299 317.939 183.397 318.45 182.366C318.961 181.335 319.233 180.202 319.245 179.051V179.051Z" fill="#020202"/>
<path d="M337.412 179.051C337.436 181.507 336.619 183.897 335.096 185.823C334.273 186.807 333.234 187.588 332.06 188.105C330.886 188.622 329.609 188.862 328.328 188.806C325.811 188.631 323.458 187.491 321.761 185.622C320.05 183.84 319.016 181.516 318.838 179.051C318.748 177.778 318.927 176.5 319.362 175.299C319.797 174.099 320.48 173.004 321.365 172.084C322.259 171.135 323.339 170.379 324.536 169.863C325.734 169.347 327.024 169.082 328.328 169.084C329.632 169.102 330.918 169.39 332.104 169.93C333.272 170.468 334.3 171.267 335.11 172.266C336.637 174.194 337.45 176.591 337.412 179.051ZM337.23 179.051C337.22 177.886 336.938 176.74 336.407 175.703C335.88 174.7 335.151 173.817 334.264 173.112C332.581 171.759 330.487 171.022 328.328 171.023C326.193 171.032 324.14 171.842 322.574 173.294C320.988 174.814 320.013 176.862 319.833 179.051C319.745 180.187 319.91 181.327 320.316 182.391C320.721 183.455 321.357 184.416 322.178 185.205C323.008 185.953 323.981 186.523 325.038 186.882C326.096 187.241 327.215 187.38 328.328 187.293C330.503 187.175 332.585 186.374 334.278 185.004C335.186 184.299 335.924 183.397 336.435 182.366C336.947 181.335 337.218 180.202 337.23 179.051V179.051Z" fill="#020202"/>
<path d="M328.419 162.902C328.444 165.358 327.627 167.748 326.104 169.674C325.28 170.658 324.241 171.439 323.067 171.956C321.894 172.473 320.617 172.713 319.335 172.657C316.818 172.482 314.465 171.342 312.768 169.473C311.058 167.691 310.024 165.367 309.845 162.902C309.756 161.629 309.934 160.351 310.37 159.15C310.805 157.95 311.487 156.855 312.372 155.935C313.267 154.986 314.346 154.23 315.544 153.714C316.741 153.198 318.032 152.933 319.335 152.935C320.639 152.953 321.925 153.241 323.112 153.781C324.279 154.319 325.307 155.118 326.117 156.117C327.644 158.045 328.458 160.442 328.419 162.902V162.902ZM328.237 162.902C328.227 161.737 327.946 160.591 327.414 159.554C326.888 158.551 326.158 157.668 325.271 156.963C323.589 155.61 321.494 154.873 319.335 154.874C317.201 154.883 315.147 155.693 313.581 157.145C311.995 158.665 311.02 160.713 310.84 162.902C310.753 164.038 310.918 165.178 311.323 166.242C311.729 167.306 312.364 168.267 313.185 169.056C314.015 169.804 314.988 170.374 316.046 170.733C317.103 171.092 318.222 171.231 319.335 171.144C321.51 171.026 323.592 170.226 325.285 168.855C326.194 168.15 326.931 167.248 327.443 166.217C327.954 165.186 328.226 164.053 328.237 162.902H328.237ZM346.404 195.229C346.429 197.685 345.612 200.075 344.089 202.001C343.265 202.985 342.227 203.765 341.053 204.283C339.879 204.8 338.602 205.04 337.321 204.983C334.803 204.809 332.451 203.668 330.754 201.8C329.043 200.018 328.009 197.693 327.831 195.229C327.741 193.955 327.92 192.677 328.355 191.477C328.79 190.277 329.473 189.181 330.358 188.262C331.252 187.313 332.331 186.557 333.529 186.041C334.727 185.525 336.017 185.259 337.321 185.261C338.625 185.28 339.91 185.568 341.097 186.108C342.264 186.646 343.293 187.445 344.102 188.443C345.63 190.371 346.443 192.769 346.404 195.229V195.229ZM346.223 195.229C346.213 194.064 345.931 192.917 345.4 191.881C344.873 190.877 344.143 189.995 343.257 189.29C341.574 187.936 339.48 187.199 337.321 187.201C335.186 187.209 333.133 188.02 331.566 189.471C329.981 190.991 329.006 193.039 328.826 195.229C328.738 196.364 328.903 197.505 329.309 198.569C329.714 199.633 330.35 200.594 331.17 201.383C332 202.13 332.974 202.7 334.031 203.059C335.088 203.418 336.208 203.558 337.321 203.47C339.495 203.353 341.577 202.552 343.27 201.182C344.179 200.477 344.917 199.575 345.428 198.544C345.939 197.513 346.211 196.38 346.223 195.229V195.229Z" fill="#020202"/>
<path d="M201.083 119.855C199.438 120.735 197.985 121.934 196.807 123.381C195.696 124.766 195.118 126.504 195.18 128.279C195.326 130.086 195.741 131.861 196.411 133.546L197.362 136.2C197.68 137.07 198.026 137.921 198.415 138.746C198.789 139.583 199.234 140.361 199.678 141.274C200.119 142.199 200.426 143.182 200.589 144.194C200.975 146.141 201.013 148.142 200.702 150.102C200.378 152.045 199.589 153.881 198.402 155.452C197.216 157.024 195.667 158.285 193.887 159.127C195.383 158.053 196.637 156.678 197.568 155.089C198.5 153.501 199.089 151.735 199.297 149.905C199.452 148.099 199.317 146.281 198.899 144.518C198.738 143.661 198.462 142.83 198.079 142.048C197.686 141.262 197.177 140.401 196.769 139.512C196.363 138.619 196.009 137.709 195.691 136.796C195.383 135.897 195.062 135.003 194.781 134.083C194.118 132.215 193.775 130.248 193.767 128.265C193.802 127.237 194.029 126.225 194.438 125.281C194.856 124.361 195.431 123.521 196.137 122.798C197.527 121.435 199.223 120.426 201.083 119.855ZM216.762 139.491C218.622 140.062 220.318 141.072 221.708 142.435C222.414 143.157 222.989 143.997 223.407 144.917C223.815 145.861 224.043 146.874 224.077 147.902C224.07 149.884 223.727 151.851 223.063 153.719C222.783 154.639 222.462 155.533 222.154 156.432C221.835 157.345 221.482 158.255 221.076 159.149C220.668 160.037 220.158 160.898 219.765 161.684C219.383 162.467 219.107 163.298 218.946 164.154C218.527 165.917 218.393 167.736 218.547 169.541C218.755 171.371 219.344 173.137 220.276 174.726C221.208 176.314 222.462 177.69 223.958 178.764C222.178 177.921 220.629 176.66 219.442 175.089C218.256 173.517 217.467 171.681 217.143 169.739C216.832 167.778 216.87 165.778 217.256 163.831C217.419 162.819 217.726 161.835 218.167 160.91C218.61 159.997 219.056 159.22 219.429 158.382C219.819 157.558 220.165 156.706 220.483 155.836L221.434 153.182C222.104 151.498 222.519 149.723 222.665 147.915C222.726 146.14 222.149 144.402 221.038 143.017C219.86 141.57 218.406 140.371 216.762 139.491V139.491ZM231.543 106.712C233.403 107.283 235.099 108.293 236.489 109.656C237.195 110.379 237.77 111.219 238.188 112.138C238.596 113.082 238.824 114.095 238.858 115.123C238.851 117.105 238.508 119.072 237.844 120.94C237.564 121.861 237.243 122.754 236.935 123.653C236.616 124.566 236.263 125.476 235.857 126.37C235.449 127.259 234.939 128.12 234.546 128.905C234.164 129.688 233.888 130.519 233.727 131.375C233.308 133.138 233.174 134.957 233.328 136.762C233.537 138.592 234.125 140.359 235.057 141.947C235.989 143.535 237.243 144.911 238.739 145.985C236.959 145.142 235.41 143.881 234.223 142.31C233.037 140.738 232.248 138.903 231.924 136.96C231.613 134.999 231.651 132.999 232.037 131.052C232.2 130.04 232.507 129.056 232.948 128.131C233.391 127.218 233.837 126.441 234.21 125.603C234.6 124.779 234.946 123.927 235.264 123.057L236.215 120.403C236.885 118.719 237.3 116.944 237.446 115.137C237.507 113.362 236.93 111.623 235.819 110.238C234.641 108.791 233.187 107.592 231.543 106.712V106.712ZM304.538 119.9C302.892 120.781 301.438 121.981 300.26 123.429C299.156 124.826 298.569 126.562 298.6 128.342C298.693 130.145 299.091 131.92 299.777 133.589C300.102 134.454 300.437 135.328 300.798 136.19C301.15 137.026 301.562 137.844 301.998 138.687C302.956 140.419 303.645 142.288 304.042 144.227C304.429 146.176 304.469 148.178 304.158 150.14C303.836 152.084 303.047 153.922 301.86 155.495C300.673 157.068 299.123 158.33 297.342 159.173C298.839 158.098 300.094 156.722 301.026 155.132C301.958 153.542 302.546 151.775 302.753 149.943C302.907 148.137 302.772 146.317 302.352 144.554C301.944 142.784 301.279 141.083 300.378 139.506C299.956 138.66 299.526 137.779 299.157 136.862C298.806 135.969 298.453 135.076 298.156 134.151C297.468 132.279 297.139 130.294 297.188 128.299C297.286 126.247 298.142 124.304 299.589 122.847C300.979 121.482 302.677 120.472 304.538 119.9V119.9ZM337.065 127.173C338.926 127.745 340.624 128.755 342.014 130.12C343.462 131.577 344.317 133.52 344.415 135.572C344.464 137.566 344.135 139.552 343.447 141.424C343.15 142.349 342.798 143.242 342.446 144.135C342.077 145.052 341.648 145.933 341.225 146.779C340.325 148.356 339.66 150.056 339.252 151.826C338.832 153.59 338.696 155.41 338.85 157.216C339.057 159.048 339.646 160.815 340.578 162.405C341.51 163.995 342.764 165.371 344.261 166.446C342.48 165.603 340.93 164.341 339.743 162.767C338.556 161.194 337.768 159.357 337.445 157.413C337.134 155.45 337.174 153.449 337.562 151.5C337.959 149.56 338.648 147.692 339.605 145.959C340.041 145.117 340.454 144.299 340.805 143.463C341.166 142.601 341.501 141.727 341.827 140.862C342.513 139.192 342.911 137.418 343.003 135.615C343.034 133.835 342.447 132.099 341.343 130.702C340.165 129.254 338.711 128.054 337.065 127.173V127.173ZM318.399 103.511C320.261 104.083 321.958 105.094 323.348 106.458C324.796 107.915 325.652 109.858 325.75 111.91C325.798 113.905 325.47 115.89 324.781 117.762C324.484 118.687 324.132 119.58 323.78 120.473C323.411 121.39 322.982 122.271 322.56 123.117C321.659 124.694 320.994 126.395 320.586 128.165C320.166 129.928 320.03 131.748 320.184 133.555C320.391 135.386 320.98 137.153 321.912 138.743C322.844 140.333 324.098 141.709 325.595 142.784C323.814 141.941 322.264 140.679 321.077 139.106C319.89 137.533 319.102 135.695 318.779 133.751C318.469 131.789 318.508 129.787 318.896 127.838C319.293 125.899 319.982 124.03 320.939 122.298C321.376 121.455 321.788 120.637 322.139 119.801C322.501 118.939 322.836 118.065 323.161 117.2C323.847 115.531 324.245 113.757 324.338 111.954C324.368 110.173 323.781 108.437 322.677 107.041C321.499 105.592 320.045 104.392 318.399 103.511V103.511Z" fill="black"/>
<path d="M417.057 60.4554C415.798 61.7818 414.829 63.3556 414.21 65.0769C413.611 66.7274 413.565 68.5284 414.081 70.2069C414.402 71.1437 414.583 72.1232 414.616 73.1132C414.625 73.6602 414.53 74.2038 414.335 74.7151C414.128 75.2532 413.789 75.7305 413.349 76.1029C412.517 76.8239 411.506 77.1301 411.058 77.5751C410.835 77.7549 410.691 78.0146 410.656 78.299C410.621 78.5835 410.699 78.8704 410.872 79.0986C411.097 79.38 411.379 79.6108 411.699 79.776C412.175 80.0629 412.593 80.4363 412.932 80.8769C413.096 81.087 413.245 81.3088 413.377 81.5405L413.721 82.1713C413.942 82.5939 414.157 83.0217 414.343 83.4673C414.769 84.3834 415.034 85.3662 415.127 86.3724C415.064 87.26 415.085 88.1515 415.189 89.0351C415.453 90.6515 417.026 91.649 418.797 91.9297C420.604 92.2265 422.44 92.305 424.266 92.1634C422.44 92.6004 420.56 92.7686 418.685 92.6627C417.693 92.6007 416.729 92.3074 415.87 91.8062C414.96 91.2415 414.304 90.3453 414.042 89.3065C413.849 88.3651 413.77 87.404 413.804 86.4437C413.683 85.6094 413.424 84.8011 413.037 84.0519C412.846 83.6534 412.649 83.2531 412.434 82.8601L412.107 82.2776C412.008 82.1086 411.897 81.9471 411.774 81.7943C411.545 81.5019 411.264 81.255 410.944 81.0663C410.441 80.8033 410.001 80.436 409.652 79.989C409.26 79.4567 409.088 78.7935 409.172 78.1377C409.268 77.5081 409.577 76.9304 410.047 76.5009C410.451 76.1599 410.898 75.8748 411.378 75.6531C411.747 75.4719 412.099 75.2573 412.429 75.012C412.71 74.778 412.935 74.4829 413.085 74.1489C413.235 73.815 413.307 73.4512 413.296 73.0851C413.289 72.2238 413.174 71.3668 412.953 70.5345C412.711 69.5731 412.64 68.577 412.741 67.591C412.852 66.6247 413.118 65.6825 413.528 64.8006C414.351 63.0974 415.559 61.6096 417.057 60.4554V60.4554Z" fill="#020202"/>
<path d="M414.881 71.07C415.762 70.4612 416.801 70.122 417.871 70.0939C418.41 70.0762 418.949 70.1417 419.469 70.2884C419.988 70.4375 420.466 70.705 420.865 71.07C419.888 70.8823 418.892 70.8082 417.897 70.8491C416.916 70.8806 415.94 71.0001 414.881 71.07ZM417.873 75.0984C418.165 75.0883 418.441 74.9653 418.644 74.7554C418.846 74.5455 418.96 74.265 418.96 73.9732C418.96 73.6813 418.846 73.4009 418.644 73.191C418.441 72.981 418.165 72.8581 417.873 72.848C417.582 72.8581 417.305 72.981 417.103 73.191C416.9 73.4009 416.787 73.6813 416.787 73.9732C416.787 74.265 416.9 74.5455 417.103 74.7554C417.305 74.9653 417.582 75.0883 417.873 75.0984V75.0984ZM431.202 79.0449C431.494 79.0347 431.77 78.9118 431.972 78.7018C432.175 78.4919 432.288 78.2115 432.288 77.9197C432.288 77.6278 432.175 77.3474 431.972 77.1375C431.77 76.9276 431.494 76.8046 431.202 76.7945C430.911 76.8046 430.634 76.9276 430.432 77.1375C430.229 77.3474 430.116 77.6278 430.116 77.9197C430.116 78.2115 430.229 78.4919 430.432 78.7018C430.634 78.9118 430.911 79.0347 431.202 79.0449V79.0449ZM413.859 83.3547C414.222 83.4486 414.594 83.5023 414.968 83.5147C415.366 83.5326 415.764 83.5127 416.158 83.4554C416.98 83.3415 417.768 83.0498 418.466 82.6005C417.893 83.2708 417.182 83.809 416.381 84.1779C415.969 84.3722 415.54 84.5273 415.099 84.6411C414.637 84.7655 414.162 84.8378 413.684 84.8566L413.859 83.3547Z" fill="#020202"/>
<path d="M416.785 58.5501C416.785 58.5501 416.785 66.8514 427.938 71.6144C427.938 71.6144 430.658 66.9194 434.262 69.9813C437.866 73.0433 433.854 80.7321 430.454 80.8002C428.049 82.5883 426.195 85.0158 425.101 87.8065C424.007 90.5972 423.717 93.6391 424.266 96.5861C426.102 106.997 432.97 121.966 433.242 127.41C433.514 132.853 444.395 134.622 452.691 129.995C457.623 127.247 463.441 126.562 468.876 128.09C468.876 128.09 464.524 111.488 461.94 100.328C459.356 89.1695 453.099 56.781 441.539 53.9232C429.978 51.0654 416.785 58.5501 416.785 58.5501Z" fill="#020202"/>
<path d="M418.238 166.255C424.006 166.325 429.773 166.3 435.54 166.18C441.306 166.056 447.069 165.904 452.816 165.546C455.689 165.366 458.559 165.139 461.414 164.824C462.841 164.663 464.263 164.477 465.679 164.266L466.209 164.183C466.369 164.166 466.528 164.133 466.681 164.084C466.825 164.054 466.963 164.001 467.091 163.929C467.235 163.87 467.371 163.794 467.497 163.703C468.043 163.34 468.524 162.887 468.92 162.364C469.727 161.261 470.316 160.013 470.655 158.688C470.986 157.333 471.165 155.945 471.187 154.55C471.178 151.718 470.786 148.899 470.024 146.172L469.996 146.066L470.004 145.967L471.043 132.408L471.602 125.659C471.915 121.207 471.409 116.735 470.108 112.466C469.489 110.306 468.78 108.172 467.974 106.078C467.18 103.984 466.24 101.948 465.163 99.9857C464.112 98.0275 462.801 96.2204 461.266 94.6138L461.577 94.7407L452.873 94.6648L453.166 94.0709C454.522 95.9458 455.776 97.892 456.925 99.9009C458.091 101.896 459.145 103.955 460.079 106.069C461.018 108.186 461.78 110.378 462.354 112.621C462.921 114.879 463.165 117.205 463.079 119.532L463.07 119.706L462.902 119.743C458.431 120.717 453.891 121.343 449.323 121.617C447.042 121.761 444.755 121.832 442.468 121.794C440.181 121.783 437.896 121.635 435.615 121.457L435.353 121.437L435.336 121.154C435.149 118.821 434.697 116.518 433.989 114.287C433.295 112.044 432.438 109.854 431.424 107.735C430.393 105.625 429.228 103.582 427.937 101.62C427.322 100.619 426.588 99.6979 425.92 98.7333C425.213 97.7959 424.462 96.8918 423.735 95.9698L424.092 96.1504C420.227 96.0346 416.372 96.6161 412.713 97.8669C409.134 99.1824 405.864 101.489 404.293 104.989C402.487 108.4 401.32 112.113 400.851 115.944C400.636 117.862 400.577 119.794 400.674 121.722C400.726 123.66 401.011 125.596 400.951 127.656C400.77 131.614 400.386 135.561 399.802 139.48C399.243 143.393 398.675 147.275 397.803 151.177L397.618 151.919C397.545 152.172 397.435 152.497 397.355 152.717C397.195 153.133 397.034 153.594 396.874 154.058L395.935 156.842L394.105 162.442C392.9 166.182 391.717 169.928 390.557 173.682C389.407 177.435 388.26 181.198 387.251 184.971C387.122 185.443 387 185.914 386.893 186.383C386.78 186.852 386.658 187.327 386.594 187.76C386.5 188.182 386.468 188.707 386.41 189.19L386.247 190.659L385.571 196.522C384.642 204.336 383.716 212.143 382.617 219.947C382.475 220.923 382.321 221.899 382.142 222.883L381.658 225.769C381.331 227.686 381.147 229.626 381.108 231.571C381.08 232.542 381.115 233.515 381.214 234.482C381.269 235.445 381.392 236.403 381.581 237.349C381.967 239.214 382.365 241.208 382.687 243.157C383.233 247.04 383.716 250.969 385.352 254.519C386.145 256.298 387.29 257.897 388.719 259.22C390.181 260.519 391.906 261.489 393.776 262.062L393.733 262.207C391.817 261.672 390.039 260.731 388.519 259.447C387.019 258.128 385.802 256.519 384.942 254.716C383.184 251.121 382.561 247.132 381.961 243.267C381.605 241.344 381.205 239.486 380.757 237.509C380.544 236.53 380.399 235.538 380.324 234.539C380.207 233.552 380.153 232.557 380.165 231.563C380.124 227.579 380.982 223.62 381.483 219.788C382.493 212.004 383.335 204.181 384.178 196.366L384.79 190.503L384.937 189.038C384.99 188.544 385.008 188.086 385.112 187.542C385.189 187.001 385.307 186.522 385.422 186.036C385.532 185.545 385.656 185.064 385.785 184.588C386.799 180.761 387.937 176.997 389.083 173.229C390.234 169.464 391.41 165.709 392.611 161.961L396.247 150.81C397.067 147.031 397.695 143.131 398.263 139.263C398.862 135.406 399.264 131.52 399.469 127.622C399.542 125.747 399.273 123.769 399.228 121.776C399.141 119.774 399.215 117.767 399.45 115.777C399.954 111.781 401.201 107.916 403.127 104.38C403.603 103.474 404.152 102.607 404.768 101.789L405.815 100.649C406.183 100.291 406.572 99.9545 406.979 99.6418C408.591 98.3993 410.396 97.4305 412.322 96.7742C416.135 95.5214 420.143 94.9701 424.152 95.147L424.376 95.1547L424.509 95.3277C425.235 96.2745 425.985 97.2026 426.691 98.1642C427.357 99.1539 428.09 100.099 428.702 101.124C429.988 103.135 431.144 105.226 432.163 107.386C433.163 109.554 434.004 111.793 434.678 114.084C435.372 116.381 435.8 118.75 435.954 121.145L435.675 120.842C437.935 121.054 440.203 121.23 442.476 121.245C444.748 121.294 447.022 121.235 449.292 121.103C451.562 120.979 453.827 120.761 456.082 120.465C458.333 120.166 460.589 119.811 462.791 119.29L462.614 119.502C462.681 117.225 462.426 114.951 461.856 112.746C461.273 110.536 460.507 108.379 459.565 106.297C458.629 104.208 457.569 102.177 456.392 100.214C455.223 98.2498 453.95 96.3491 452.58 94.5201L452.134 93.9325L452.873 93.926L461.577 93.8501L461.758 93.8486L461.888 93.9771C463.514 95.6175 464.91 97.4714 466.037 99.488C467.172 101.475 468.167 103.539 469.015 105.665C469.871 107.781 470.63 109.931 471.291 112.114C471.978 114.31 472.459 116.566 472.729 118.851C473.001 121.139 473.062 123.448 472.913 125.747L472.387 132.533L471.285 146.048L471.265 145.844C472.039 148.689 472.425 151.626 472.413 154.574C472.379 156.068 472.177 157.552 471.81 159C471.422 160.476 470.753 161.863 469.84 163.085C469.358 163.711 468.774 164.25 468.112 164.68C467.943 164.797 467.762 164.896 467.573 164.974C467.383 165.074 467.181 165.148 466.972 165.195C466.781 165.251 466.585 165.291 466.387 165.314L465.847 165.394C464.409 165.605 462.967 165.764 461.525 165.904C458.641 166.175 455.754 166.356 452.867 166.489C447.091 166.738 441.316 166.844 435.544 166.806C429.771 166.761 424.001 166.627 418.234 166.406L418.238 166.255Z" fill="#020202"/>
<path d="M421.319 125.686C421.736 129.988 421.932 134.309 421.908 138.631C421.906 142.954 421.729 147.278 421.349 151.591C420.989 155.91 420.37 160.203 419.495 164.447C418.656 168.704 417.336 172.851 415.561 176.809C416.772 172.685 417.698 168.484 418.336 164.234L418.81 161.054L419.197 157.861C419.444 155.731 419.677 153.598 419.845 151.458C420.252 147.185 420.491 142.894 420.734 138.6C420.943 134.304 421.165 130.002 421.319 125.686Z" fill="#020202"/>
<path d="M412.747 97.2336C415.652 98.866 418.227 101.026 420.341 103.603C422.513 106.17 424.231 109.089 425.421 112.234L425.855 113.418L426.204 114.629L426.547 115.842C426.635 116.263 426.74 116.68 426.79 117.108C427.047 118.805 427.015 120.533 426.696 122.22C426.092 125.562 424.335 128.585 421.731 130.763C423.81 128.282 425.129 125.253 425.531 122.04C425.718 120.476 425.667 118.892 425.379 117.343C425.312 116.957 425.219 116.577 425.132 116.196L424.786 115.044L424.438 113.893L424.009 112.77C422.875 109.758 421.33 106.918 419.417 104.33C417.499 101.695 415.258 99.3111 412.747 97.2336V97.2336ZM390.853 226.72C392.28 228.761 393.329 231.043 393.948 233.456C394.267 234.67 394.449 235.916 394.49 237.17C394.534 238.435 394.425 239.701 394.167 240.94C394.149 241.039 394.093 241.126 394.01 241.184C393.928 241.241 393.826 241.263 393.728 241.245C393.629 241.228 393.542 241.171 393.484 241.089C393.427 241.007 393.405 240.905 393.423 240.806L393.426 240.789L393.433 240.76C393.739 239.589 393.904 238.385 393.923 237.175C393.945 235.955 393.83 234.735 393.58 233.541C393.087 231.122 392.164 228.811 390.853 226.72ZM395.138 258.552C393.162 257.225 391.31 255.723 389.605 254.063C389.179 253.638 388.796 253.173 388.462 252.673C388.375 252.546 388.301 252.412 388.24 252.271C388.161 252.136 388.106 251.988 388.079 251.834C388.016 251.538 387.988 251.236 387.996 250.934C387.965 249.752 388.011 248.568 388.133 247.392C388.074 248.569 388.091 249.749 388.184 250.924C388.128 252.147 389.047 252.99 389.869 253.793C391.634 255.335 393.533 256.714 395.544 257.915L395.138 258.552Z" fill="#020202"/>
<path d="M450.559 386.551C452.485 394.451 454.829 402.242 457.328 409.969C456.828 410.124 456.328 410.278 455.819 410.442C454.084 410.997 452.303 411.642 450.513 412.369C447.732 413.513 444.876 414.464 441.964 415.215C414.243 422.342 393.573 407.651 393.573 407.651C401.551 396.769 393.755 262.133 393.755 262.133C393.755 262.133 397.198 262.951 394.073 257.369C394.073 257.369 398.434 258.642 396.635 254.388C396.526 254.124 396.399 253.86 396.244 253.56C396.244 253.56 391.965 248.324 391.965 247.097C392.185 245.61 392.519 244.142 392.964 242.706C393.401 241.151 393.8 239.778 393.8 239.615C394.672 240.603 395.494 241.635 396.263 242.706C396.668 243.229 396.984 243.816 397.198 244.442C397.471 245.733 398.834 252.269 400.06 252.469C401.278 252.678 403.931 253.088 403.186 243.697C403.15 243.36 403.122 243.033 403.077 242.706C402.86 240.617 402.462 238.552 401.887 236.533C401.605 235.533 401.296 234.569 400.96 233.66C400.961 233.655 400.96 233.65 400.958 233.646C400.957 233.641 400.954 233.637 400.951 233.633C400.055 231.168 398.97 228.777 397.707 226.478C397.699 226.472 397.693 226.463 397.688 226.454C397.683 226.445 397.681 226.434 397.68 226.424C396.39 218.66 398.098 211.588 400.978 205.151C400.999 205.098 401.023 205.046 401.051 204.997C403.84 198.751 416.079 171.197 417.987 166.897C418.141 166.524 418.232 166.333 418.232 166.333C426.563 166.806 435.395 166.697 443.199 166.379H443.336C456.419 165.842 466.586 164.697 466.586 164.697V164.706L466.704 168.506C463.527 168.622 460.399 169.331 457.482 170.597C456.001 171.178 454.575 171.878 453.157 172.588C451.931 173.224 450.741 173.906 449.559 174.633C449.405 174.524 449.25 174.415 449.096 174.315C447.941 171.55 446.567 168.881 444.989 166.333C446.402 168.811 447.629 171.391 448.66 174.051C447.827 173.605 446.958 173.231 446.061 172.933C444.706 172.476 443.326 172.097 441.927 171.797C439.172 171.208 436.388 170.762 433.587 170.46C432.187 170.288 430.788 170.16 429.389 170.06C427.99 169.942 426.591 169.851 425.191 169.797C422.393 169.66 419.586 169.606 416.787 169.697L425.091 170.842C427.863 171.233 430.616 171.624 433.369 172.051C436.112 172.497 438.847 172.942 441.537 173.56C442.872 173.878 444.208 174.187 445.498 174.615C446.722 174.972 447.878 175.535 448.914 176.278L449.45 176.724L449.614 176.606C449.859 177.297 450.104 177.997 450.332 178.697C451.694 182.971 452.491 187.406 452.703 191.888C452.802 194.115 452.713 196.347 452.439 198.56C452.179 200.767 451.694 202.942 450.995 205.051C449.681 209.063 447.618 212.79 444.917 216.033L444.753 215.997L444.408 216.288C443.542 216.996 442.562 217.553 441.509 217.933C440.424 218.357 439.302 218.679 438.157 218.897C435.81 219.337 433.43 219.571 431.043 219.597C428.644 219.669 426.218 219.588 423.792 219.451C421.375 219.315 418.95 219.106 416.515 218.86C418.871 219.537 421.268 220.059 423.692 220.424C426.126 220.811 428.58 221.048 431.043 221.133C433.536 221.223 436.033 221.058 438.493 220.642C440.445 220.324 442.326 219.669 444.053 218.706C442.781 226.124 441.836 233.569 441.101 241.051C440.301 249.151 439.747 257.279 439.365 265.406C439.002 273.533 438.793 281.679 438.875 289.815C438.956 297.96 439.232 306.097 439.701 314.224C440.219 322.342 440.91 330.46 441.827 338.542C442.045 340.569 442.345 342.579 442.6 344.597C442.854 346.615 443.136 348.633 443.454 350.642L444.39 356.679L445.434 362.688C445.771 364.697 446.17 366.688 446.57 368.688L447.769 374.669C448.669 378.633 449.505 382.615 450.559 386.551Z" fill="#020202"/>
<path d="M506.736 414.915C506.736 414.915 489.455 403.815 464.887 408.179C462.334 408.627 459.81 409.225 457.328 409.969C452.798 394.373 449.215 378.517 446.598 362.488C444.026 346.467 442.282 330.324 441.373 314.124C440.946 306.024 440.713 297.918 440.674 289.806C440.619 281.697 440.728 273.588 441.064 265.479C441.4 257.378 441.918 249.278 442.672 241.197C443.427 233.433 444.253 225.651 445.48 217.951C447.06 218.267 448.655 218.504 450.259 218.66C452.088 218.846 453.926 218.937 455.765 218.933C457.602 218.942 459.437 218.842 461.262 218.633C463.082 218.434 464.885 218.106 466.659 217.651C464.833 217.76 463.024 217.878 461.216 217.851C459.408 217.851 457.609 217.787 455.819 217.642C454.021 217.515 452.231 217.306 450.459 217.06C449.06 216.86 447.661 216.606 446.289 216.315C448.839 213.042 450.775 209.333 452.004 205.369C452.688 203.186 453.145 200.938 453.366 198.66C453.615 196.396 453.654 194.114 453.484 191.842C453.154 187.313 452.228 182.847 450.731 178.56C450.486 177.833 450.205 177.106 449.932 176.388L449.959 176.36C451.213 175.497 452.549 174.678 453.875 173.888C455.202 173.097 456.562 172.351 457.955 171.651C460.707 170.192 463.653 169.133 466.704 168.506C482.477 183.615 474.182 215.188 474.182 215.188C474.182 217.36 478.261 246.533 478.261 246.533C483.34 266.669 506.736 414.915 506.736 414.915Z" fill="#020202"/>
<path d="M461.601 94.2237C466.505 95.8476 471.102 98.2843 475.199 101.432C479.393 104.556 482.82 108.594 485.221 113.241C486.409 115.58 487.239 118.086 487.681 120.672C487.876 121.951 488.12 123.225 488.274 124.505L488.635 128.355C488.991 133.492 488.941 138.628 488.913 143.754C488.86 146.317 488.79 148.879 488.704 151.44C488.649 154.002 488.51 156.561 488.386 159.121C488.146 164.242 487.818 169.361 487.352 174.47C486.444 184.707 484.85 194.872 482.582 204.896L482.603 204.749C482.398 208.502 482.404 212.264 482.621 216.017C482.679 216.931 482.795 217.84 482.968 218.739C483.163 219.632 483.384 220.619 483.539 221.551C483.871 223.443 484.112 225.343 484.277 227.252C484.652 231.075 484.545 234.93 483.96 238.726C483.662 240.632 483.108 242.488 482.313 244.245C481.905 245.119 481.412 245.949 480.84 246.725C480.253 247.486 479.573 248.17 478.814 248.76L478.72 248.641C479.424 248.02 480.047 247.313 480.574 246.536C481.081 245.75 481.509 244.916 481.852 244.046C482.506 242.292 482.947 240.467 483.168 238.608C483.561 234.871 483.523 231.101 483.056 227.372C482.847 225.505 482.56 223.644 482.189 221.807C482.006 220.872 481.789 220.011 481.554 219.057C481.34 218.099 481.191 217.127 481.11 216.148C480.824 212.326 480.784 208.49 480.991 204.664L480.994 204.595L481.012 204.516C482.171 199.557 483.182 194.558 484.043 189.52C484.844 184.477 485.633 179.426 486.225 174.347C487.62 164.208 488.333 153.986 488.362 143.751C488.335 138.636 488.05 133.524 487.531 128.454L487.035 124.67C486.867 123.411 486.612 122.171 486.406 120.921C485.93 118.462 485.135 116.075 484.043 113.821C482.938 111.566 481.568 109.45 479.962 107.519C478.325 105.596 476.528 103.816 474.588 102.2C470.638 98.9812 466.249 96.3436 461.553 94.3669L461.601 94.2237Z" fill="#020202"/>
<path d="M406.399 406.664C405.664 409.566 404.479 412.334 402.889 414.87C401.334 417.441 399.474 419.815 397.35 421.941C396.819 422.472 396.251 422.964 395.702 423.478L394.867 424.237L393.982 424.936C393.389 425.398 392.807 425.877 392.203 426.325L390.329 427.584L389.391 428.213L388.409 428.769L386.442 429.88C385.104 430.566 383.714 431.15 382.351 431.789L382.731 431.396C382.384 432.402 382.259 433.472 382.363 434.531C382.424 434.979 382.602 435.404 382.879 435.76C383.191 436.063 383.586 436.267 384.013 436.344C384.257 436.383 384.503 436.408 384.749 436.42C385.013 436.429 385.31 436.409 385.59 436.405C386.157 436.381 386.73 436.337 387.3 436.282C388.443 436.163 389.585 435.995 390.722 435.787C395.283 434.894 399.753 433.59 404.079 431.891C408.428 430.203 412.682 428.279 416.822 426.128C420.987 424.008 425.024 421.638 429.016 419.192L428.843 419.694C428.419 418.287 428.095 416.852 427.874 415.399C427.646 413.958 427.497 412.506 427.427 411.048C427.348 409.595 427.354 408.138 427.444 406.685C427.533 405.236 427.712 403.794 427.978 402.367C427.65 405.238 427.63 408.136 427.918 411.011C428.058 412.442 428.276 413.865 428.571 415.273C428.849 416.673 429.211 418.056 429.655 419.413L429.764 419.73L429.482 419.914C425.548 422.49 421.563 425.006 417.422 427.261C413.275 429.517 408.995 431.52 404.607 433.258C400.207 435.029 395.645 436.366 390.985 437.249C389.814 437.457 388.632 437.625 387.441 437.742C386.845 437.797 386.246 437.84 385.642 437.862C385.335 437.865 385.046 437.885 384.725 437.874C384.386 437.859 384.049 437.822 383.715 437.763C382.984 437.618 382.316 437.247 381.808 436.702C381.355 436.134 381.068 435.451 380.979 434.73C380.858 433.445 381.025 432.149 381.468 430.936L381.554 430.675L381.848 430.542C383.185 429.939 384.55 429.391 385.866 428.742L387.815 427.718L388.79 427.205L389.721 426.619L391.587 425.447C392.189 425.028 392.77 424.577 393.363 424.144L394.249 423.487L395.086 422.771C395.637 422.285 396.209 421.82 396.745 421.316C398.884 419.286 400.802 417.035 402.466 414.6C404.151 412.157 405.476 409.484 406.399 406.664V406.664Z" fill="black"/>
<path d="M429.249 419.553C429.517 420.436 429.249 446.725 429.249 446.725H417.28V436.246L415.467 436.428C393.161 450.944 369.405 446.952 363.058 443.323C356.711 439.694 382.099 431.166 382.099 431.166C382.099 431.166 379.923 437.154 384.82 437.154C389.716 437.154 405.13 435.158 429.249 419.553ZM499.244 402.363C498.916 405.235 498.897 408.134 499.186 411.011C499.326 412.443 499.544 413.866 499.839 415.274C500.118 416.675 500.481 418.058 500.925 419.415L501.033 419.729L500.753 419.915C494.025 424.491 486.905 428.462 479.478 431.783C475.739 433.424 471.896 434.812 467.972 435.939C466 436.498 464.001 436.953 461.982 437.304C460.97 437.477 459.952 437.625 458.925 437.727C458.411 437.78 457.895 437.821 457.377 437.848L456.596 437.878C456.297 437.891 455.998 437.884 455.7 437.858L455.786 437.867C454.997 437.844 454.231 437.595 453.579 437.151C452.931 436.65 452.486 435.932 452.324 435.129C452.176 434.418 452.155 433.686 452.26 432.967C452.349 432.276 452.509 431.596 452.738 430.938L452.834 430.66L453.12 430.543C455.849 429.456 458.486 428.153 461.006 426.644C463.52 425.117 465.869 423.332 468.013 421.318C470.164 419.299 472.084 417.048 473.738 414.605C475.419 412.16 476.741 409.486 477.664 406.665C476.93 409.567 475.749 412.338 474.163 414.876C472.62 417.456 470.758 419.831 468.621 421.945C466.49 424.073 464.142 425.972 461.617 427.613C460.354 428.432 459.055 429.198 457.719 429.893C456.386 430.597 454.999 431.175 453.623 431.794L454.005 431.399C453.822 431.962 453.696 432.542 453.628 433.13C453.552 433.69 453.575 434.258 453.695 434.809C453.789 435.278 454.049 435.698 454.428 435.99C454.856 436.256 455.349 436.403 455.853 436.414L455.922 436.423L455.939 436.423C456.038 436.425 456.32 436.43 456.56 436.42L457.296 436.388C457.787 436.359 458.28 436.318 458.774 436.265C459.76 436.161 460.745 436.013 461.727 435.84C463.691 435.494 465.638 435.022 467.568 434.488C471.433 433.396 475.222 432.051 478.911 430.462C482.625 428.917 486.237 427.125 489.802 425.244C493.368 423.362 496.86 421.333 500.288 419.196L500.116 419.695C499.691 418.289 499.367 416.853 499.146 415.4C498.917 413.959 498.767 412.506 498.697 411.048C498.618 409.594 498.622 408.136 498.711 406.683C498.801 405.234 498.979 403.791 499.244 402.363V402.363Z" fill="black"/>
<path d="M500.521 446.727H488.552V436.249L486.739 436.43C476.466 443.133 464.471 446.71 452.208 446.727C443.798 446.727 437.239 444.988 434.33 443.325C431.859 441.911 434.194 439.764 437.965 437.655C443.889 434.351 453.371 431.168 453.371 431.168C453.371 431.168 451.278 436.929 455.82 437.141C455.91 437.153 456.001 437.158 456.092 437.156C459.058 437.078 462.008 436.675 464.887 435.954C472.707 434.139 484.751 429.754 500.521 419.555C500.785 420.432 500.521 446.727 500.521 446.727Z" fill="black"/>
</svg>
