<svg width="25" height="25" viewBox="0 0 25 25" fill="none" xmlns="http://www.w3.org/2000/svg">
<path d="M12.4999 5.20833C18.0117 5.20833 22.5712 9.28525 23.3273 14.588C23.4492 15.4423 22.74 16.1458 21.8771 16.1458H3.12282C2.25988 16.1458 1.55073 15.4423 1.67255 14.588C2.42873 9.28525 6.98822 5.20833 12.4999 5.20833Z" stroke="black" stroke-linecap="round" stroke-linejoin="round"/>
<path d="M12.5001 7.8125C15.498 7.8125 18.1016 9.50115 19.4115 11.9792" stroke="black" stroke-linecap="round" stroke-linejoin="round"/>
<path d="M21.9503 19.3182C22.5804 19.3263 23.2578 19.5385 23.3934 20.1538C23.4208 20.2781 23.4375 20.4176 23.4375 20.5729C23.4375 20.7282 23.4208 20.8677 23.3934 20.992C23.2578 21.6073 22.5804 21.8195 21.9503 21.8276C20.5294 21.8459 17.4906 21.875 12.5 21.875C7.50937 21.875 4.47062 21.8459 3.0497 21.8276C2.41958 21.8195 1.74217 21.6073 1.60656 20.992C1.57918 20.8677 1.5625 20.7282 1.5625 20.5729C1.5625 20.4176 1.57918 20.2781 1.60656 20.1538C1.74217 19.5385 2.41958 19.3263 3.0497 19.3182C4.47062 19.2999 7.50937 19.2708 12.5 19.2708C17.4906 19.2708 20.5294 19.2999 21.9503 19.3182Z" stroke="black" stroke-linecap="round" stroke-linejoin="round"/>
<path d="M12.5 2.08333V5.20833" stroke="black" stroke-linecap="round" stroke-linejoin="round"/>
<path d="M14.5833 2.08333H10.4167" stroke="black" stroke-linecap="round" stroke-linejoin="round"/>
</svg>
