<svg width="31" height="25" viewBox="0 0 31 25" fill="none" xmlns="http://www.w3.org/2000/svg">
<path fill-rule="evenodd" clip-rule="evenodd" d="M18.8969 8.16575C19.0892 8.45687 19.0571 8.85248 18.8008 9.10876L9.60845 18.3011C9.51422 18.3954 9.39659 18.4628 9.26766 18.4965L5.43923 19.4965C5.31437 19.5291 5.18566 19.5284 5.06473 19.4976C4.93616 19.4649 4.81639 19.3982 4.71937 19.3011C4.5311 19.1129 4.45676 18.8389 4.52405 18.5813L5.52405 14.7528C5.55351 14.64 5.60881 14.5286 5.68529 14.4412L14.9117 5.21967C14.9925 5.13891 15.0898 5.07846 15.1957 5.04163C15.2742 5.01432 15.3574 5 15.4421 5C15.641 5 15.8318 5.07902 15.9724 5.21967L18.8008 8.0481C18.8374 8.08471 18.8695 8.12416 18.8969 8.16575ZM17.2098 8.57843L15.4421 6.81066L6.92391 15.3288L6.29893 17.7216L8.69169 17.0966L17.2098 8.57843Z" fill="white"/>
<path d="M17.0834 19.9103C17.3568 17.5727 17.4438 15.2188 17.3444 12.8708C17.3397 12.7584 17.3819 12.649 17.4615 12.5694L18.4448 11.5861C18.5657 11.4652 18.7723 11.5419 18.7836 11.7125C18.9685 14.5022 18.8984 17.3045 18.5733 20.0846C18.3367 22.1071 16.7124 23.6921 14.7003 23.917C11.2338 24.3044 7.65042 24.3044 4.18385 23.917C2.17179 23.6921 0.547457 22.1071 0.310903 20.0846C-0.103634 16.5403 -0.103635 12.9597 0.310903 9.41543C0.547456 7.3929 2.17179 5.80789 4.18385 5.58301C6.8136 5.2891 9.51054 5.21815 12.1727 5.37016C12.3443 5.37996 12.4225 5.58757 12.301 5.70909L11.3084 6.70165C11.2298 6.78034 11.1218 6.82261 11.0106 6.81885C8.78419 6.74376 6.54263 6.82872 4.35046 7.07373C3.02035 7.22239 1.95486 8.272 1.80075 9.58968C1.39975 13.0182 1.39975 16.4818 1.80075 19.9103C1.95486 21.228 3.02035 22.2776 4.35046 22.4263C7.70631 22.8013 11.1779 22.8013 14.5337 22.4263C15.8638 22.2776 16.9293 21.228 17.0834 19.9103Z" fill="white"/>
</svg>
