<svg width="25" height="25" viewBox="0 0 25 25" fill="none" xmlns="http://www.w3.org/2000/svg">
<path d="M20.1303 1.96179C22.5311 3.74422 25.8851 8.65894 26.2224 16.2478C26.2573 17.0339 25.8752 17.7779 25.1615 18.1093C24.6518 18.3459 23.9632 18.6145 23.0955 18.8432C22.7796 18.9265 22.5684 19.2294 22.6146 19.5528L23.3804 24.9135C23.5932 26.4031 23.0098 27.7378 21.5589 28.137C20.2019 28.5104 18.75 27.6093 18.75 26.2019V2.81621C18.75 2.01406 19.4862 1.48361 20.1303 1.96179Z" stroke="black" stroke-width="2" stroke-linecap="round" stroke-linejoin="round"/>
<path d="M13.7157 3.34892C14.0034 5.04765 14.4057 8.01538 14.3734 11.1848C14.3567 12.8204 13.2643 14.2863 11.5466 14.6713C11.1921 14.7508 10.8137 14.8223 10.4186 14.8781L11.571 24.8657C11.7463 26.3853 10.8048 27.876 9.289 28.0813C9.08631 28.1088 8.90175 28.1252 8.75 28.1252C8.59819 28.1252 8.41363 28.1088 8.21094 28.0813C6.69513 27.876 5.75361 26.3853 5.92894 24.8657L7.08138 14.8781C6.68631 14.8222 6.30794 14.7508 5.95348 14.6713C4.23571 14.2863 3.14319 12.8203 3.12653 11.1846C3.09424 8.01556 3.49585 5.04822 3.78313 3.34944C3.92954 2.48362 4.68663 1.875 5.56473 1.875H11.9343C12.8122 1.875 13.5692 2.48334 13.7157 3.34892Z" stroke="black" stroke-width="2" stroke-linecap="round" stroke-linejoin="round"/>
<path d="M7.1875 1.875L6.875 8.75" stroke="black" stroke-width="2" stroke-linecap="round" stroke-linejoin="round"/>
<path d="M10.3125 1.875L10.625 8.75" stroke="black" stroke-width="2" stroke-linecap="round" stroke-linejoin="round"/>
</svg>
