<svg width="18" height="18" viewBox="0 0 18 18" fill="none" xmlns="http://www.w3.org/2000/svg">
<path fill-rule="evenodd" clip-rule="evenodd" d="M7.45434 1.8842C8.62389 1.75108 9.80475 1.75108 10.9743 1.8842L12.1708 2.02039C12.3422 2.03989 12.4951 2.13695 12.5858 2.2837C12.6764 2.43045 12.6947 2.61067 12.6354 2.77265L10.9835 7.28507H12.75C12.9346 7.28507 13.1074 7.37558 13.2124 7.52727C13.3175 7.67896 13.3415 7.87254 13.2766 8.04529L13.1338 8.42571C12.1429 11.065 10.7419 13.5314 8.98257 15.7342L8.68955 16.1011C8.54042 16.2878 8.28958 16.3599 8.06405 16.2809C7.83852 16.2019 7.68754 15.989 7.68754 15.75V10.3857H6.32146C6.03007 10.3857 5.78692 10.1632 5.76117 9.87291L5.6692 8.83657C5.51359 7.08312 5.51359 5.31934 5.6692 3.56589L5.76117 2.52956C5.78479 2.26341 5.99237 2.05061 6.25785 2.02039L7.45434 1.8842ZM10.8471 3.00198C9.76207 2.87849 8.66657 2.87849 7.58157 3.00198L6.84118 3.08626L6.78979 3.66534C6.64006 5.35262 6.64006 7.04984 6.78979 8.73712L6.83626 9.26068H8.25004C8.5607 9.26068 8.81254 9.51252 8.81254 9.82318V14.1017C10.0891 12.345 11.1384 10.4326 11.9346 8.41007H10.1786C9.9949 8.41007 9.82277 8.32036 9.71753 8.16978C9.6123 8.0192 9.58724 7.82672 9.65039 7.65421L11.3332 3.05731L10.8471 3.00198Z" fill="white"/>
</svg>
