<svg width="33" height="33" viewBox="0 0 33 33" fill="none" xmlns="http://www.w3.org/2000/svg">
<path d="M16.8316 8.87363C16.997 10.7097 17.2037 13.2749 17.2037 14.625C17.2037 14.625 21.0871 15.4625 24.701 16.9154C26.4821 17.6314 27.5365 19.406 27.277 21.3081C27.0732 22.8022 26.6859 24.7601 25.953 27.0021C25.2901 29.03 23.5332 30.4802 21.4132 30.7198C20.3245 30.8429 19.0298 30.9375 17.6223 30.9375C16.0281 30.9375 14.6042 30.8161 13.466 30.6694C11.6101 30.4304 9.9259 29.4727 9.069 27.8092C8.35599 26.4249 7.57554 24.384 7.12365 21.5658C6.92235 20.3102 7.41817 19.0581 8.34705 18.1895L10.3117 16.3526C10.3117 12.6807 10.4016 10.2621 10.4901 8.77064C10.5642 7.52049 11.3883 6.44117 12.6281 6.26454C12.9556 6.21789 13.3009 6.1875 13.6449 6.1875C13.953 6.1875 14.2621 6.21187 14.5585 6.25046C15.8547 6.41924 16.7143 7.57185 16.8316 8.87363Z" stroke="black" stroke-width="3" stroke-linecap="round" stroke-linejoin="round"/>
<path d="M21.3125 9.625C21.3125 5.44835 17.9266 2.0625 13.75 2.0625C9.57337 2.0625 6.1875 5.44835 6.1875 9.625" stroke="black" stroke-width="3" stroke-linecap="round" stroke-linejoin="round"/>
</svg>
