<svg width="16" height="21" viewBox="0 0 16 21" fill="none" xmlns="http://www.w3.org/2000/svg">
<path d="M5.75 0C5.33579 0 5 0.335786 5 0.75V1.5H0.75C0.335786 1.5 0 1.83579 0 2.25C0 2.66421 0.335786 3 0.75 3H14.75C15.1642 3 15.5 2.66421 15.5 2.25C15.5 1.83579 15.1642 1.5 14.75 1.5H10.5V0.75C10.5 0.335786 10.1642 0 9.75 0H5.75Z" fill="#FB8A8A"/>
<path d="M8.81067 12.75L10.2803 14.2197C10.5732 14.5126 10.5732 14.9874 10.2803 15.2803C9.98744 15.5732 9.51256 15.5732 9.21967 15.2803L7.75001 13.8107L6.28034 15.2803C5.98744 15.5732 5.51257 15.5732 5.21968 15.2803C4.92678 14.9874 4.92678 14.5126 5.21968 14.2197L6.68935 12.75L5.21967 11.2803C4.92678 10.9874 4.92678 10.5126 5.21967 10.2197C5.51256 9.92677 5.98744 9.92677 6.28033 10.2197L7.75001 11.6893L9.21968 10.2197C9.51257 9.92678 9.98745 9.92678 10.2803 10.2197C10.5732 10.5126 10.5732 10.9874 10.2803 11.2803L8.81067 12.75Z" fill="#FB8A8A"/>
<path fill-rule="evenodd" clip-rule="evenodd" d="M1.74142 5.66718C1.78363 5.28735 2.10468 5 2.48684 5H13.0132C13.3953 5 13.7164 5.28735 13.7586 5.66718L13.9587 7.46852C14.3215 10.7338 14.3215 14.0293 13.9587 17.2946L13.939 17.472C13.795 18.7681 12.7904 19.8017 11.4989 19.9825C9.01176 20.3307 6.48823 20.3307 4.00108 19.9825C2.70954 19.8017 1.705 18.7681 1.56098 17.472L1.54128 17.2946C1.17846 14.0293 1.17846 10.7338 1.54128 7.46852L1.74142 5.66718ZM3.15812 6.5L3.0321 7.63417C2.68152 10.7894 2.68152 13.9738 3.0321 17.129L3.0518 17.3063C3.12011 17.921 3.59652 18.4112 4.20905 18.497C6.55822 18.8258 8.94177 18.8258 11.2909 18.497C11.9035 18.4112 12.3799 17.921 12.4482 17.3063L12.4679 17.129C12.8185 13.9738 12.8185 10.7894 12.4679 7.63417L12.3419 6.5H3.15812Z" fill="#FB8A8A"/>
</svg>
